<svg width="33" height="29" viewBox="0 0 33 29" fill="#154212" xmlns="http://www.w3.org/2000/svg">
<path d="M6.76932 28.5C6.09432 28.5 5.49432 28.2938 4.96932 27.8813C4.44432 27.4688 4.08182 26.9375 3.88182 26.2875L0.0568182 12.4125C-0.0681818 11.9375 0.0130682 11.5 0.300568 11.1C0.588068 10.7 0.981818 10.5 1.48182 10.5H8.60682L15.2068 0.675C15.3318 0.475 15.5068 0.3125 15.7318 0.1875C15.9568 0.0625 16.1943 0 16.4443 0C16.6943 0 16.9318 0.0625 17.1568 0.1875C17.3818 0.3125 17.5568 0.475 17.6818 0.675L24.2818 10.5H31.4818C31.9818 10.5 32.3756 10.7 32.6631 11.1C32.9506 11.5 33.0318 11.9375 32.9068 12.4125L29.0818 26.2875C28.8818 26.9375 28.5193 27.4688 27.9943 27.8813C27.4693 28.2938 26.8693 28.5 26.1943 28.5H6.76932ZM6.73182 25.5H26.2318L29.5318 13.5H3.43182L6.73182 25.5ZM16.4818 22.5C17.3068 22.5 18.0131 22.2062 18.6006 21.6187C19.1881 21.0312 19.4818 20.325 19.4818 19.5C19.4818 18.675 19.1881 17.9688 18.6006 17.3813C18.0131 16.7938 17.3068 16.5 16.4818 16.5C15.6568 16.5 14.9506 16.7938 14.3631 17.3813C13.7756 17.9688 13.4818 18.675 13.4818 19.5C13.4818 20.325 13.7756 21.0312 14.3631 21.6187C14.9506 22.2062 15.6568 22.5 16.4818 22.5ZM12.2443 10.5H20.6818L16.4443 4.2L12.2443 10.5Z" fill="#154212"/>
</svg>
